<svg xmlns="http://www.w3.org/2000/svg" xmlns:svg="http://www.w3.org/2000/svg" id="svg8" width="32" height="32" version="1.1" viewBox="0 0 8.467 8.467"><metadata id="metadata5"/><g id="layer1" transform="translate(0,-288.53331)"><path id="path3684" fill="#000" fill-opacity=".05" stroke="none" stroke-linecap="butt" stroke-linejoin="miter" stroke-opacity="1" stroke-width=".265" d="m 0,296.99998 v -8.46667 h 8.4666666 l 10e-8,0.26458 H 0.26458333 l 0,8.20209 z"/><path id="path4491" fill="#000" fill-opacity=".05" stroke="none" stroke-linecap="butt" stroke-linejoin="miter" stroke-opacity="1" stroke-width=".265" d="m 4.2333334,292.23748 h 0.2645833 v 0.52916 h 0.5291667 l 0,0.26459 H 4.4979167 v 0.52917 H 4.2333334 v -0.52917 H 3.7041667 l 0,-0.26459 h 0.5291667 z"/><path id="path4493" fill="#000" fill-opacity=".05" stroke="none" stroke-linecap="butt" stroke-linejoin="miter" stroke-opacity="1" stroke-width=".265" d="m 3.4395833,292.76664 0,0.26459 H 2.38125 l 0,-0.26459 z"/><path id="path4493-2" fill="#000" fill-opacity=".05" stroke="none" stroke-linecap="butt" stroke-linejoin="miter" stroke-opacity="1" stroke-width=".265" d="m 6.3499999,292.76664 10e-8,0.26459 H 5.2916667 l -1e-7,-0.26459 z"/><path id="path4493-6" fill="#000" fill-opacity=".05" stroke="none" stroke-linecap="butt" stroke-linejoin="miter" stroke-opacity="1" stroke-width=".265" d="m 7.6729167,292.76664 v 0.26459 H 6.6145834 v -0.26459 z"/><path id="path4493-1" fill="#000" fill-opacity=".05" stroke="none" stroke-linecap="butt" stroke-linejoin="miter" stroke-opacity="1" stroke-width=".265" d="m 2.1166666,292.76664 1e-7,0.26459 H 1.0583334 l -1e-7,-0.26459 z"/><path id="path4522" fill="#000" fill-opacity=".05" stroke="none" stroke-linecap="butt" stroke-linejoin="miter" stroke-opacity="1" stroke-width=".265" d="m 4.2333333,291.97289 0.2645834,0 v -1.05833 l -0.2645834,0 z"/><path id="path4522-7" fill="#000" fill-opacity=".05" stroke="none" stroke-linecap="butt" stroke-linejoin="miter" stroke-opacity="1" stroke-width=".265" d="m 4.2333334,290.64997 0.2645833,1e-5 v -1.05833 l -0.2645833,-1e-5 z"/><path id="path4522-5" fill="#000" fill-opacity=".05" stroke="none" stroke-linecap="butt" stroke-linejoin="miter" stroke-opacity="1" stroke-width=".265" d="m 4.2333334,294.88331 h 0.2645833 v -1.05833 H 4.2333334 Z"/><path id="path4522-74" fill="#000" fill-opacity=".05" stroke="none" stroke-linecap="butt" stroke-linejoin="miter" stroke-opacity="1" stroke-width=".265" d="m 4.2333333,296.20622 h 0.2645833 v -1.05833 H 4.2333333 Z"/><path id="path4522-7-4" fill="#000" fill-opacity=".05" stroke="none" stroke-linecap="butt" stroke-linejoin="miter" stroke-opacity="1" stroke-width=".265" d="m 4.2333334,289.32706 0.2645834,10e-6 -10e-8,-0.52918 -0.2645834,-10e-6 z"/><path id="path4522-7-4-4" fill="#000" fill-opacity=".05" stroke="none" stroke-linecap="butt" stroke-linejoin="miter" stroke-opacity="1" stroke-width=".265" d="m 4.2333332,296.99998 h 0.2645835 l 0,-0.52917 H 4.2333333 Z"/><path id="path4493-1-7" fill="#000" fill-opacity=".05" stroke="none" stroke-linecap="butt" stroke-linejoin="miter" stroke-opacity="1" stroke-width=".265" d="m 0.79375,292.76664 -3e-8,0.26459 -0.52916667,0 3e-8,-0.26459 z"/><path id="path4493-1-7-2" fill="#000" fill-opacity=".05" stroke="none" stroke-linecap="butt" stroke-linejoin="miter" stroke-opacity="1" stroke-width=".265" d="m 8.4666667,292.76664 v 0.26459 l -0.5291667,0 v -0.26459 z"/></g></svg>